<svg xmlns="http://www.w3.org/2000/svg" viewBox="0 0 64 64">
  <defs>
    <linearGradient id="field" x1="0" y1="0" x2="1" y2="1">
      <stop offset="0" stop-color="#16a34a"/>
      <stop offset="1" stop-color="#0f766e"/>
    </linearGradient>
  </defs>
  <rect width="64" height="64" rx="14" fill="url(#field)"/>
  <circle cx="32" cy="32" r="26" fill="none" stroke="#facc15" stroke-width="4"/>
  <path d="M14 32h36M32 10v44" stroke="#ffffff" stroke-opacity=".28" stroke-width="3" stroke-linecap="round"/>
  <circle cx="32" cy="32" r="17" fill="#f8fafc"/>
  <path d="M32 20l8 6-3 10H27l-3-10 8-6z" fill="#111827"/>
  <path d="M20 29l4-3 3 10-7 5c-2-4-2-8 0-12zM44 29l-4-3-3 10 7 5c2-4 2-8 0-12zM25 47l2-11h10l2 11c-4 2-10 2-14 0z" fill="#111827"/>
  <path d="M24 26l-4 3M40 26l4 3M27 36l-7 5M37 36l7 5M27 36l-2 11M37 36l2 11" stroke="#e5e7eb" stroke-width="2" stroke-linecap="round"/>
</svg>
